<?xml version="1.0" encoding="UTF-8"?>
<svg width="2100px" height="455px" viewBox="0 0 2100 455" version="1.1" xmlns="http://www.w3.org/2000/svg" xmlns:xlink="http://www.w3.org/1999/xlink">
    <title>Group 3</title>
    <g id="Page-1" stroke="none" stroke-width="1" fill="none" fill-rule="evenodd">
        <g id="Logo" transform="translate(-50.000000, -794.000000)" fill-rule="nonzero">
            <g id="Group-3" transform="translate(50.000000, 794.000000)">
                <path d="M831.004403,343.45624 L927.720803,153.729342 L948.708805,112.436441 L902.479106,112.436441 L881.352505,153.729342 L831.004403,252.636943 L780.6563,153.729342 L759.529699,112.436441 L713.3,112.436441 L734.288002,153.729342 L831.004403,343.45624 Z M1001.7497,343.40014 L1022.8763,302.107239 L1073.2244,203.19634 L1123.57251,302.107239 L1144.69911,343.40014 L1190.92881,343.40014 L1169.9408,302.107239 L1073.2244,112.380341 L976.508002,302.107239 L955.52,343.40014 L1001.7497,343.40014 Z M1255.2326,343.53874 L1318.1999,261.913238 L1381.1672,343.53874 L1433.162,343.53874 L1344.128,228.302741 L1433.5712,112.518941 L1433.5712,112.380341 L1381.71501,112.380341 L1318.1999,194.692239 L1254.68151,112.380341 L1202.69001,112.380341 L1292.1332,228.302741 L1203.2378,343.53874 L1255.2326,343.53874 Z M1202.69001,344.221842 L1203.23781,343.53874 L1202.69001,343.53874 L1202.69001,344.221842 Z M1433.5712,344.086541 L1433.5712,343.53874 L1433.162,343.53874 L1433.5712,344.086541 Z M1529.6372,343.330843 L1529.6372,112.436446 L1488.44001,112.436446 L1488.44001,343.330843 L1529.6372,343.330843 Z M1633.9829,343.40014 L1633.9829,197.160642 L1782.4169,311.571641 L1823.7098,343.40014 L1823.7098,112.380341 L1782.4169,112.380341 L1782.4169,259.441541 L1633.9829,145.030542 L1592.69,113.205341 L1592.69,343.40014 L1633.9829,343.40014 Z M2100.00001,343.400135 L2100.00001,302.245833 L1944.9709,302.245833 C1933.312,302.245833 1923.8443,292.642831 1923.8443,280.980632 L1923.8443,237.354633 L2072.4169,237.354633 L2072.4169,196.200331 L1923.8443,196.200331 L1923.8443,174.799829 C1923.8443,163.13763 1933.312,153.534628 1944.9709,153.534628 L2100.00001,153.534644 L2100.00001,112.380341 L1944.9709,112.380341 C1910.5387,112.380341 1882.69001,140.36764 1882.69001,174.799839 L1882.69001,280.980637 C1882.69001,315.412836 1910.5387,343.400135 1944.9709,343.400135 L2100.00001,343.400135 Z" id="vaxine" fill="#F9FDFF"></path>
                <g id="injection-6099129" fill="#00B0AD">
                    <path d="M291.128042,389.746345 L304.345766,384.481954 L293.042333,356.100023 C311.829448,345.406303 327.897309,330.490406 339.98804,312.520025 L372.257517,332.982482 L385.156192,312.474247 L351.747256,291.233576 C358.562907,275.919711 362.57709,259.498266 363.597629,242.755406 L418.291657,236.071919 L415.374642,211.993054 L363.00511,218.3561 C360.145132,192.497702 350.152907,167.955075 334.154011,147.492826 L356.943189,124.054844 L351.018003,118.241126 C367.927573,134.766734 387.98205,141.679108 395.775949,133.622302 C403.569848,125.565495 396.140575,105.652366 379.185427,89.08098 C362.230278,72.5095942 342.22138,65.6429979 334.427481,73.6998043 C326.633582,81.7566106 334.062854,101.66974 351.018003,118.195348 L339.668992,107.163017 L317.745802,129.548121 C294.480125,108.464529 264.828539,95.8555661 233.562578,93.7502655 L233.562578,47.1489651 L209.406049,47.1489651 L209.406049,94.3453705 C191.887974,96.1545578 174.872998,101.296868 159.269857,109.49766 L135.295641,80.7037325 L129.552768,85.5561272 C145.86982,71.8229346 153.846032,54.4733345 147.419484,46.691192 C140.992936,38.9090495 122.488123,43.8072216 106.398963,57.4946369 C90.3098036,71.1820523 82.1056994,88.5774296 88.5322477,96.3137948 C94.9587959,104.05016 113.463609,99.2435426 129.552768,85.5561272 L118.613963,94.711589 L140.673887,121.216651 C121.877679,135.314379 106.897379,153.916895 97.1009787,175.32543 L46.9647866,157.838498 L39.0797309,180.727152 L89.215923,198.12253 C82.3800928,224.253742 83.1711743,251.808204 91.4948408,277.500383 L44.8681822,296.223303 L52.9355513,316.50265 L99.8356801,297.688176 C111.978712,321.624974 130.667659,341.586522 153.709297,355.230254 L143.864372,406.683949 L167.610696,411.26168 L176.270584,365.942144 C207.667089,377.357169 242.086028,377.162413 273.352483,365.392816 L284.154554,392.584538 L291.128042,389.746345 C271.392614,397.665819 258.402782,411.719453 262.094629,421.103801 C265.786476,430.488149 284.883807,431.632582 304.619236,423.713108 C324.354664,415.793633 337.344496,401.739999 333.652649,392.401428 C329.960802,383.062857 310.86347,381.82687 291.128042,389.746345 Z" id="Path"></path>
                    <path d="M224.076555,48.3408381 C247.71328,48.3408381 266.874632,37.5193729 266.874632,24.1704191 C266.874632,10.8214652 247.71328,0 224.076555,0 C200.43983,0 181.278478,10.8214652 181.278478,24.1704191 C181.278478,37.5193729 200.43983,48.3408381 224.076555,48.3408381 Z" id="Oval"></path>
                    <path d="M14.1540948,275.440404 C3.03297578,280.018135 0.480587814,299.565046 8.36564348,319.386621 C16.2506991,339.208196 31.6106053,351.705401 42.7317243,347.265002 C53.8528432,342.824603 56.4052312,323.094583 48.5201755,303.273008 C40.6351199,283.451433 25.2296354,270.954228 14.1540948,275.440404 Z" id="Path"></path>
                    <path d="M152.068477,405.948186 C128.869093,401.370455 108.039784,408.465938 105.487396,421.558248 C102.935008,434.650559 119.753422,449.024634 142.952805,453.602364 C166.152189,458.180095 187.027076,451.13039 189.533886,438.038079 C192.040695,424.945769 175.26786,410.434362 152.068477,405.948186 Z" id="Path"></path>
                    <path d="M419.516547,293.200337 C410.081828,287.20351 392.169534,298.60206 379.544329,318.652521 C366.919124,338.702982 364.321158,359.852099 373.755878,365.848926 C383.190597,371.845754 401.102891,360.447204 413.728096,340.396743 C426.353301,320.346281 428.951267,298.968278 419.516547,293.200337 Z" id="Path"></path>
                    <path d="M9.68741582,206.820218 C20.2615945,210.482403 35.0745604,195.284337 42.822881,172.853455 C50.5712016,150.422574 48.2467054,129.273457 37.718105,125.611272 C27.1895047,121.949088 12.3309605,137.147154 4.5826399,159.578036 C-3.1656807,182.008917 -0.841184524,203.158034 9.68741582,206.820218 Z" id="Path"></path>
                    <ellipse id="Oval" transform="translate(115.232936, 73.056751) rotate(-38.000000) translate(-115.232936, -73.056751) " cx="115.232936" cy="73.0567507" rx="42.8109961" ry="19.4777579"></ellipse>
                    <ellipse id="Oval" transform="translate(364.795375, 102.646631) rotate(42.000000) translate(-364.795375, -102.646631) " cx="364.795375" cy="102.646631" rx="46.5909849" ry="21.1952249"></ellipse>
                    <ellipse id="Oval" transform="translate(299.607518, 405.424509) rotate(-23.000000) translate(-299.607518, -405.424509) " cx="299.607518" cy="405.424509" rx="42.8032802" ry="19.4812642"></ellipse>
                    <ellipse id="Oval" transform="translate(438.927191, 223.641901) rotate(-6.930000) translate(-438.927191, -223.641901) " cx="438.927191" cy="223.641901" rx="24.0668921" ry="42.9821718"></ellipse>
                </g>
            </g>
        </g>
    </g>
</svg>